<!-- Generated by IcoMoon.io -->
<svg version="1.1" xmlns="http://www.w3.org/2000/svg" width="133" height="32" viewBox="0 0 133 32">
<title>Group-4</title>
<path d="M81.512 16c0 8.837-6.843 16-15.284 16s-15.284-7.163-15.284-16c0-8.837 6.843-16 15.284-16s15.284 7.163 15.284 16z"></path>
<path d="M30.567 16c0 8.837-6.843 16-15.284 16s-15.284-7.163-15.284-16c0-8.837 6.843-16 15.284-16s15.284 7.163 15.284 16z"></path>
<path d="M132.458 16c0 8.837-6.843 16-15.284 16s-15.284-7.163-15.284-16c0-8.837 6.843-16 15.284-16s15.284 7.163 15.284 16z"></path>
</svg>
